<svg width="390" height="44" viewBox="0 0 390 44" fill="none" xmlns="http://www.w3.org/2000/svg">
<path d="M326.885 18.5578C329.345 18.5579 331.711 19.5088 333.494 21.2139C333.628 21.3456 333.843 21.3439 333.975 21.2102L335.259 19.9073C335.326 19.8395 335.363 19.7476 335.362 19.652C335.362 19.5565 335.323 19.465 335.256 19.398C330.576 14.8866 323.193 14.8866 318.513 19.398C318.445 19.465 318.406 19.5564 318.406 19.652C318.405 19.7475 318.442 19.8394 318.509 19.9073L319.793 21.2102C319.925 21.3441 320.14 21.3458 320.274 21.2139C322.058 19.5087 324.424 18.5578 326.885 18.5578ZM326.885 22.7968C328.236 22.7967 329.54 23.3021 330.542 24.2148C330.677 24.3443 330.891 24.3415 331.023 24.2085L332.305 22.9055C332.372 22.8372 332.41 22.7445 332.409 22.6481C332.408 22.5518 332.369 22.4599 332.3 22.3929C329.248 19.5379 324.523 19.5379 321.472 22.3929C321.403 22.4599 321.364 22.5518 321.363 22.6482C321.362 22.7446 321.399 22.8373 321.467 22.9055L322.749 24.2085C322.881 24.3415 323.094 24.3443 323.23 24.2148C324.231 23.3027 325.534 22.7974 326.885 22.7968ZM329.348 25.9064C329.417 25.8387 329.455 25.7455 329.453 25.6489C329.451 25.5523 329.409 25.4608 329.338 25.396C327.922 24.1911 325.847 24.1911 324.431 25.396C324.36 25.4608 324.318 25.5522 324.316 25.6489C324.314 25.7455 324.352 25.8386 324.42 25.9064L326.638 28.1575C326.703 28.2236 326.792 28.2609 326.885 28.2609C326.977 28.2609 327.066 28.2236 327.131 28.1575L329.348 25.9064Z" fill="white"/>
<path d="M341.884 19.0338C341.884 18.3668 342.425 17.8261 343.092 17.8261H359.698C360.365 17.8261 360.906 18.3668 360.906 19.0338V24.7705C360.906 25.4375 360.365 25.9783 359.698 25.9783H343.092C342.425 25.9783 341.884 25.4375 341.884 24.7705V19.0338Z" fill="white"/>
<path opacity="0.4" fill-rule="evenodd" clip-rule="evenodd" d="M343.092 16.9203H359.698C360.865 16.9203 361.812 17.8665 361.812 19.0338V24.7705C361.812 25.9378 360.865 26.8841 359.698 26.8841H343.092C341.925 26.8841 340.978 25.9378 340.978 24.7705V19.0338C340.978 17.8665 341.925 16.9203 343.092 16.9203ZM340.072 19.0338C340.072 17.3663 341.424 16.0145 343.092 16.0145H359.698C361.366 16.0145 362.717 17.3663 362.717 19.0338V24.7705C362.717 26.4381 361.366 27.7899 359.698 27.7899H343.092C341.424 27.7899 340.072 26.4381 340.072 24.7705V19.0338ZM365.133 21.9022C365.133 22.8302 364.489 23.6078 363.623 23.8122V19.9921C364.489 20.1966 365.133 20.9742 365.133 21.9022Z" fill="white"/>
<path fill-rule="evenodd" clip-rule="evenodd" d="M310.728 16.9565C310.208 16.9565 309.786 17.3783 309.786 17.8986V26.3768C309.786 26.8971 310.208 27.3188 310.728 27.3188H311.953C312.473 27.3188 312.895 26.8971 312.895 26.3768V17.8986C312.895 17.3783 312.473 16.9565 311.953 16.9565H310.728ZM305.123 19.9709C305.123 19.4507 305.545 19.0289 306.065 19.0289H307.29C307.81 19.0289 308.232 19.4507 308.232 19.9709V26.3767C308.232 26.897 307.81 27.3188 307.29 27.3188H306.065C305.545 27.3188 305.123 26.897 305.123 26.3767V19.9709ZM301.402 21.1015C300.882 21.1015 300.46 21.5233 300.46 22.0435V26.3769C300.46 26.8971 300.882 27.3189 301.402 27.3189H302.627C303.147 27.3189 303.569 26.8971 303.569 26.3769V22.0435C303.569 21.5233 303.147 21.1015 302.627 21.1015H301.402ZM296.833 27.3188C296.261 27.3188 295.797 26.8549 295.797 26.2826V23.692C295.797 23.1197 296.261 22.6558 296.833 22.6558H297.87C298.442 22.6558 298.906 23.1197 298.906 23.692V26.2826C298.906 26.8549 298.442 27.3188 297.87 27.3188H296.833Z" fill="white"/>
<path d="M38.8422 29.1304H40.937V17.183H38.8257L35.7043 19.3771V21.3394L38.7926 19.2198H38.8422V29.1304ZM47.8011 16.9761C45.2261 16.9761 43.3301 18.7065 43.3301 21.1158V21.1324C43.3301 23.3761 44.9529 25.0321 47.2546 25.0321C48.8691 25.0321 50.0614 24.2041 50.5333 23.1112H50.583C50.583 23.2437 50.5747 23.3679 50.5664 23.4921C50.4836 25.7524 49.6805 27.5904 47.7597 27.5904C46.6916 27.5904 45.963 27.0605 45.6401 26.2409L45.6152 26.1664H43.4957L43.5122 26.2574C43.8848 28.0624 45.5407 29.3374 47.7514 29.3374C50.7982 29.3374 52.628 26.9778 52.628 23.0284V23.0118C52.628 18.8224 50.4339 16.9761 47.8011 16.9761ZM47.8011 23.3844C46.4432 23.3844 45.4331 22.4157 45.4331 21.0579V21.0413C45.4331 19.7497 46.5012 18.723 47.8259 18.723C49.1672 18.723 50.2104 19.758 50.2104 21.0827V21.091C50.2104 22.424 49.1672 23.3844 47.8011 23.3844ZM54.9549 21.3145C55.6256 21.3145 56.1472 20.7846 56.1472 20.114C56.1472 19.4434 55.6256 18.9217 54.9549 18.9217C54.2843 18.9217 53.7544 19.4434 53.7544 20.114C53.7544 20.7846 54.2843 21.3145 54.9549 21.3145ZM54.9549 27.3917C55.6256 27.3917 56.1472 26.8618 56.1472 26.1912C56.1472 25.5206 55.6256 24.9989 54.9549 24.9989C54.2843 24.9989 53.7544 25.5206 53.7544 26.1912C53.7544 26.8618 54.2843 27.3917 54.9549 27.3917ZM61.9846 29.3374C64.9073 29.3374 66.6791 26.9612 66.6791 23.1609V23.1443C66.6791 19.344 64.9073 16.9761 61.9846 16.9761C59.0536 16.9761 57.2901 19.344 57.2901 23.1443V23.1609C57.2901 26.9612 59.0536 29.3374 61.9846 29.3374ZM61.9846 27.5904C60.3701 27.5904 59.4428 25.918 59.4428 23.1609V23.1443C59.4428 20.3872 60.3701 18.7313 61.9846 18.7313C63.5908 18.7313 64.5264 20.3872 64.5264 23.1443V23.1609C64.5264 25.918 63.5908 27.5904 61.9846 27.5904ZM67.822 29.1304H76.2175V27.3834H70.6453V27.2924L73.2782 24.7919C75.3812 22.7717 76.0353 21.8196 76.0353 20.4121V20.3955C76.0353 18.425 74.3628 16.9761 71.9701 16.9761C69.5441 16.9761 67.7061 18.5409 67.7061 20.7267V20.7846H69.7097V20.7267C69.7346 19.5758 70.6619 18.6899 71.9866 18.6899C73.1375 18.6899 73.9406 19.4516 73.9489 20.5197V20.5363C73.9489 21.4222 73.6094 22.0266 72.0446 23.5583L67.822 27.6732V29.1304Z" fill="white"/>
</svg>
