<svg width="56" height="56" viewBox="0 0 56 56" fill="none" xmlns="http://www.w3.org/2000/svg">
<g clip-path="url(#clip0_108_116)">
<path d="M50.4337 21.9659L49.7093 25.2261C49.6931 25.3021 49.6513 25.3701 49.591 25.419C49.5306 25.4678 49.4553 25.4944 49.3777 25.4944H48.3475C48.3009 25.4945 48.2548 25.4849 48.2121 25.4664C48.1694 25.4479 48.1309 25.4208 48.0991 25.3867C48.0673 25.3527 48.0428 25.3125 48.0272 25.2687C48.0116 25.2248 48.0052 25.1782 48.0084 25.1317V25.0711C48.0577 24.0081 47.387 23.2134 45.8674 23.214C43.3422 23.214 41.5049 25.2868 41.2645 28.0089C41.0161 30.82 42.9816 32.4534 45.701 32.4529C46.7577 32.4559 47.8088 32.2991 48.8186 31.9877C48.8748 31.9699 48.9346 31.9671 48.9923 31.9794C49.0499 31.9917 49.1034 32.0187 49.1474 32.0578C49.1915 32.097 49.2247 32.1469 49.2437 32.2027C49.2627 32.2585 49.2669 32.3182 49.2559 32.3761L48.934 34.0605C48.9208 34.1308 48.8889 34.1962 48.8417 34.25C48.7945 34.3037 48.7337 34.3437 48.6657 34.3658C48.1082 34.5434 46.5435 34.9603 44.1476 34.9609C38.4561 34.9609 36.1466 31.6877 36.504 28.3507C36.8248 25.3791 38.7909 21 46.5445 21C47.7641 20.9993 48.9781 21.1656 50.1525 21.4942C50.2513 21.5212 50.3357 21.5854 50.3882 21.6734C50.4406 21.7613 50.4569 21.8661 50.4337 21.9659ZM18.0733 21.5012L17.885 22.3517C17.8655 22.4431 17.8808 22.5386 17.9279 22.6194C17.9751 22.7001 18.0506 22.7604 18.1399 22.7884C18.4677 22.9145 18.5402 23.2295 18.2547 23.4651L13.4925 27.4229L14.3103 23.6937C14.4498 23.1211 14.9043 22.8856 15.1919 22.7922L15.2386 22.7777C15.3007 22.7586 15.3566 22.7234 15.4006 22.6756C15.4446 22.6278 15.4752 22.5691 15.4891 22.5057L15.6845 21.6224C15.6952 21.5733 15.6948 21.5223 15.6833 21.4733C15.6717 21.4244 15.6493 21.3786 15.6176 21.3394C15.586 21.3003 15.546 21.2688 15.5005 21.2471C15.4551 21.2255 15.4053 21.2144 15.355 21.2146H9.21539C9.1312 21.2146 9.04952 21.2433 8.98385 21.296C8.91819 21.3487 8.87247 21.4222 8.85426 21.5044L8.65573 22.3994C8.63667 22.4876 8.65082 22.5798 8.69548 22.6582C8.74013 22.7366 8.81214 22.7958 8.89773 22.8244L8.95836 22.8453C9.34363 22.9961 9.79007 23.3358 9.60226 24.2286L8.13524 30.93C7.75212 32.7603 7.13183 33.1338 6.53997 33.2025H6.52119C6.44398 33.2111 6.37142 33.2437 6.31367 33.2956C6.25593 33.3476 6.21591 33.4164 6.19924 33.4922L6.00929 34.3508C5.99816 34.4025 5.99875 34.456 6.011 34.5075C6.02325 34.559 6.04686 34.607 6.08009 34.6482C6.11333 34.6893 6.15535 34.7225 6.20307 34.7454C6.2508 34.7682 6.30302 34.78 6.35592 34.78H12.811C12.8877 34.7799 12.962 34.7537 13.0218 34.7058C13.0816 34.6578 13.1233 34.5909 13.14 34.516L13.3627 33.5116C13.3803 33.4323 13.369 33.3494 13.3308 33.2777C13.2926 33.2061 13.2301 33.1505 13.1545 33.1209L13.1126 33.1043C12.7858 32.9718 12.3399 32.6895 12.4537 32.1572L13.2049 28.7306C15.7746 33.4321 16.6246 34.7849 19.711 34.7843H22.4964C22.5727 34.7844 22.6468 34.7584 22.7064 34.7107C22.766 34.663 22.8076 34.5964 22.8243 34.5219L23.019 33.6516C23.031 33.5994 23.0312 33.5452 23.0196 33.4929C23.008 33.4405 22.985 33.3915 22.9521 33.3492C22.9192 33.3068 22.8774 33.2724 22.8296 33.2482C22.7818 33.2241 22.7292 33.2108 22.6756 33.2095C21.9781 33.1987 21.6368 33.0372 20.9435 32.1459L17.3667 27.3054L22.0146 23.442C22.6381 22.9542 23.3989 22.8169 23.8202 22.7611L23.862 22.7568C23.9338 22.7501 24.0017 22.7208 24.0558 22.6732C24.11 22.6256 24.1477 22.5621 24.1636 22.4917L24.3535 21.6332C24.3653 21.5831 24.3655 21.531 24.3543 21.4808C24.343 21.4306 24.3205 21.3836 24.2885 21.3433C24.2565 21.3031 24.2158 21.2706 24.1695 21.2483C24.1231 21.226 24.0723 21.2145 24.0208 21.2146H18.4296C18.3465 21.2146 18.2658 21.2429 18.2009 21.2951C18.1361 21.3472 18.0911 21.4199 18.0733 21.5012ZM35.2698 25.2235H36.3569C36.434 25.2236 36.5088 25.1973 36.5689 25.1491C36.629 25.1009 36.6708 25.0336 36.6875 24.9584L37.4269 21.6257C37.4375 21.5762 37.437 21.5249 37.4252 21.4757C37.4135 21.4264 37.391 21.3804 37.3592 21.341C37.3274 21.3016 37.2872 21.2698 37.2415 21.248C37.1959 21.2261 37.1459 21.2147 37.0953 21.2146H25.6607C25.5763 21.2146 25.4945 21.2434 25.4287 21.2961C25.363 21.3489 25.3172 21.4226 25.299 21.5049L25.1026 22.3951C25.0839 22.4794 25.0966 22.5676 25.1384 22.6431C25.1802 22.7186 25.2482 22.7762 25.3296 22.8051L25.3677 22.819C25.7433 22.9628 26.2681 23.3272 26.04 24.2222L23.7982 34.3728C23.7872 34.4221 23.7875 34.4733 23.799 34.5226C23.8105 34.5718 23.833 34.6178 23.8646 34.6572C23.8963 34.6966 23.9364 34.7284 23.9821 34.7502C24.0277 34.772 24.0776 34.7833 24.1282 34.7833H29.2708C29.3477 34.7833 29.4223 34.7571 29.4823 34.709C29.5423 34.6609 29.5841 34.5938 29.6008 34.5187L29.8246 33.5057C29.8407 33.4332 29.8312 33.3574 29.7979 33.2911C29.7645 33.2249 29.7093 33.1721 29.6416 33.1419L29.5917 33.1188C29.2654 32.9578 28.7798 32.5913 28.9424 31.8803C28.9606 31.7854 29.4489 29.5854 29.4489 29.5854H33.8221C33.8993 29.5854 33.9741 29.5591 34.0343 29.5108C34.0945 29.4625 34.1365 29.3951 34.1532 29.3198L34.5647 27.4659C34.5758 27.4162 34.5755 27.3647 34.5639 27.3152C34.5524 27.2657 34.5299 27.2194 34.498 27.1797C34.4662 27.1401 34.4259 27.1081 34.38 27.0861C34.3342 27.0641 34.284 27.0527 34.2331 27.0527H30.0075L30.7958 23.4576L33.747 23.4543C34.7005 23.4543 34.9913 23.9523 34.9361 24.8012C34.9361 24.8012 34.9361 24.8124 34.9318 24.8468C34.9268 24.8942 34.9319 24.9422 34.9466 24.9875C34.9613 25.0329 34.9854 25.0746 35.0172 25.1101C35.0491 25.1456 35.088 25.174 35.1315 25.1936C35.175 25.2131 35.2221 25.2233 35.2698 25.2235Z" fill="#E4002B"/>
</g>
<defs>
<clipPath id="clip0_108_116">
<rect width="44" height="14.0585" fill="white" transform="translate(6 21)"/>
</clipPath>
</defs>
</svg>
