<svg width="56" height="56" viewBox="0 0 56 56" fill="none" xmlns="http://www.w3.org/2000/svg">
<g clip-path="url(#clip0_108_129)">
<path d="M27.9027 47.8071C38.8956 47.8071 47.8071 38.8956 47.8071 27.9028C47.8071 16.9099 38.8956 7.99844 27.9027 7.99844C16.9099 7.99844 7.99843 16.9099 7.99843 27.9028C7.99843 38.8956 16.9099 47.8071 27.9027 47.8071Z" fill="white"/>
<path d="M29.9043 16.6039C29.7302 16.5726 28.8886 16.4314 27.9027 16.4314C26.9169 16.4314 26.0753 16.5726 25.9012 16.6039C25.8016 16.622 25.7631 16.5239 25.8384 16.4667C25.9082 16.4157 27.9027 14.8981 27.9027 14.8981L29.9655 16.4667C30.0423 16.5239 30.0047 16.622 29.9043 16.6039ZM26.4588 26.4604C26.4588 26.4604 26.3529 26.4981 26.3255 26.5906C26.7435 26.9122 27.0314 27.6424 27.9027 27.6424C28.7749 27.6424 29.0627 26.9122 29.48 26.5914C29.4525 26.4973 29.3467 26.4604 29.3467 26.4604C29.3467 26.4604 28.8016 26.589 27.9035 26.589C27.0047 26.589 26.4588 26.4604 26.4588 26.4604ZM27.9027 25.2306C27.6612 25.2306 27.6078 25.1388 27.4423 25.1396C27.2855 25.1404 26.9796 25.2659 26.9137 25.3804C26.9175 25.439 26.9417 25.4945 26.982 25.5373C27.3349 25.5914 27.4941 25.7875 27.9035 25.7875C28.3129 25.7875 28.4714 25.5914 28.8251 25.5381C28.8648 25.4949 28.8889 25.4397 28.8933 25.3812C28.8282 25.2659 28.5223 25.1412 28.3639 25.1396C28.1984 25.1388 28.1443 25.2306 27.9027 25.2306ZM47.7772 28.9945C47.7515 29.467 47.7094 29.9384 47.651 30.4079C45.3976 30.7812 44.5922 28.7733 42.2847 28.8745C42.422 29.3639 42.5341 29.8628 42.6204 30.3726C44.5239 30.371 45.291 32.1506 47.4086 31.8886C47.2974 32.4304 47.164 32.9673 47.0086 33.4981C45.3341 33.6628 44.7443 31.9984 42.8063 32.0439C42.822 32.32 42.8314 32.5992 42.8314 32.88L42.8235 33.3451L46.5859 34.7804C46.389 35.3161 46.1686 35.8392 45.9286 36.353C44.7976 36.2902 44.4071 34.8392 42.6863 34.9545C42.6345 35.3271 42.5686 35.6941 42.4902 36.0573C43.9851 35.9522 44.3074 37.3279 45.378 37.44C45.1051 37.9362 44.8121 38.4211 44.4996 38.8933C43.8643 38.5537 43.3153 37.5286 42.1121 37.4659C42.2353 37.0847 42.3435 36.6988 42.4353 36.3059C41.3686 36.3059 40.1482 35.8902 39.1255 34.9584C39.4565 33.0706 36.5263 31.1483 36.5263 29.7655C36.5263 28.2635 37.2863 27.4322 37.2863 25.4071C37.2863 23.9043 36.5569 22.2745 35.4557 21.1608C35.251 20.9512 35.0219 20.7668 34.7733 20.6118C35.7851 21.8635 36.5616 23.3467 36.5616 25.0651C36.5616 26.971 35.6737 27.9781 35.6737 29.7381C35.6737 31.4973 38.2478 33.0204 38.2478 34.8345C38.2478 35.5483 38.0204 36.2463 37.2674 37.6149C38.4235 38.7694 39.9286 39.3992 40.8996 39.3992C41.2149 39.3992 41.3843 39.3028 41.4965 39.0557C41.5937 38.8416 41.6863 38.6259 41.7725 38.4071C42.8188 38.4479 43.298 39.3984 43.8769 39.7781C43.56 40.2036 43.2262 40.6162 42.8761 41.0149C42.4878 40.5851 41.9663 39.862 41.2031 39.6612C41.0667 39.9263 40.9216 40.1883 40.7694 40.4455C41.4274 40.6243 41.8769 41.2879 42.2251 41.7239C41.8494 42.113 41.4588 42.4863 41.0525 42.8439C40.7984 42.4486 40.4031 41.9475 39.96 41.6769C39.7953 41.8981 39.6251 42.1145 39.4502 42.3247C39.8267 42.5804 40.1584 43.04 40.3757 43.4149C39.9059 43.7914 39.4204 44.149 38.9169 44.4839C38.669 42.462 35.9098 41.0769 36.6541 38.7318C36.4094 39.1451 36.1184 39.662 36.1184 40.2847C36.1184 41.982 37.9271 43.3294 38.0714 45.0165C37.6957 45.2408 37.3129 45.4518 36.9216 45.6518C36.8565 43.7969 34.942 41.7679 34.942 40.2455C34.942 38.5467 37.1671 36.84 37.1671 34.8345C37.1671 32.8275 34.6 31.4384 34.6 29.6761C34.6 27.9153 35.6918 26.9028 35.6918 24.6455C35.6918 22.9922 34.9067 21.3192 33.6925 20.2502C33.4866 20.0649 33.2582 19.9062 33.0125 19.7781C34.1569 21.1506 34.8204 22.3961 34.8204 24.2855C34.8204 26.4079 33.5686 27.5859 33.5686 29.6635C33.5686 31.742 36.0886 32.8981 36.0886 34.8353C36.0886 36.7726 33.7435 38.4055 33.7435 40.3961C33.7435 42.2063 35.8102 44.0133 35.8408 46.1608C35.389 46.3584 34.9286 46.5381 34.4604 46.702C34.7231 44.5318 32.3969 42.2933 32.3969 40.5216C32.3969 38.5867 34.829 36.9224 34.829 34.8353C34.829 32.7467 32.3561 31.7765 32.3561 29.633C32.3561 27.4902 33.8729 26.3043 33.8729 23.9373C33.8729 22.0918 32.9631 20.433 31.6314 19.4039L31.5474 19.3412C31.422 19.2479 31.3184 19.36 31.407 19.4698C32.349 20.6463 32.8533 21.8361 32.8533 23.5977C32.8533 25.7624 31.1098 27.5224 31.1098 29.6204C31.1098 32.0957 33.451 32.8039 33.451 34.8353C33.451 36.8667 30.9412 38.4902 30.9412 40.6471C30.9412 42.6471 33.3161 44.8659 32.909 47.1741C32.4321 47.2973 31.949 47.4047 31.4588 47.4926C31.9051 44.6181 29.5749 42.5545 29.5749 40.6745C29.5749 38.6384 32.1741 36.8235 32.1741 34.8353C32.1741 32.9592 30.309 32.3459 30.0635 30.4275C30.029 30.1647 29.8188 29.9702 29.5294 30.0188C29.1506 30.0879 28.6643 30.3373 27.902 30.3373C27.1388 30.3373 26.6533 30.0871 26.2737 30.0188C25.9843 29.971 25.7741 30.1655 25.7404 30.4267C25.4957 32.3459 23.6282 32.9584 23.6282 34.8353C23.6282 36.8243 26.2282 38.6384 26.2282 40.6745C26.2282 42.5545 23.8988 44.6181 24.3435 47.4926C23.8541 47.4039 23.371 47.2965 22.8941 47.1741C22.4863 44.8659 24.8627 42.6463 24.8627 40.6471C24.8627 38.4902 22.3521 36.8667 22.3521 34.8353C22.3521 32.8039 24.6933 32.0957 24.6933 29.6196C24.6933 27.5224 22.9498 25.7632 22.9498 23.5977C22.9498 21.8369 23.4533 20.6471 24.3961 19.4698C24.4847 19.36 24.3812 19.2479 24.2549 19.3404L24.1718 19.4047C22.8423 20.4298 21.9318 22.0894 21.9318 23.9341C21.9318 26.3012 23.4494 27.4871 23.4494 29.6298C23.4494 31.7726 20.9765 32.7435 20.9765 34.833C20.9765 36.9192 23.4086 38.5835 23.4086 40.5192C23.4086 42.291 21.0823 44.5286 21.3459 46.6988C20.8788 46.5363 20.4181 46.3561 19.9647 46.1584C19.9961 44.011 22.0612 42.2024 22.0612 40.393C22.0612 38.4024 19.7176 36.7694 19.7176 34.8322C19.7176 32.8949 22.2353 31.7396 22.2353 29.6612C22.2353 27.5828 20.9851 26.4047 20.9851 24.2824C20.9851 22.393 21.6478 21.1482 22.7929 19.7757C22.538 19.9075 22.327 20.0581 22.1129 20.2479C20.8988 21.3169 20.1145 22.9898 20.1145 24.6432C20.1145 26.8996 21.2063 27.9137 21.2063 29.6737C21.2063 31.4361 18.6392 32.8251 18.6392 34.8322C18.6392 36.8377 20.8643 38.5443 20.8643 40.2432C20.8643 41.7655 18.9482 43.7953 18.8839 45.6486C18.4939 45.4497 18.1107 45.2379 17.7349 45.0133C17.8792 43.3271 19.687 41.9788 19.687 40.2816C19.687 39.6588 19.3969 39.142 19.1514 38.7286C19.8957 41.0737 17.1357 42.4596 16.8878 44.4808C16.3862 44.1465 15.8997 43.7901 15.4298 43.4126C15.6463 43.0377 15.9788 42.5773 16.3553 42.3224C16.1796 42.1122 16.0102 41.8957 15.8455 41.6737C15.4016 41.9443 15.0063 42.4463 14.7521 42.8424C14.347 42.4843 13.9561 42.1105 13.5804 41.7216C13.9286 41.2855 14.378 40.622 15.0361 40.4432C14.8837 40.1861 14.7391 39.9246 14.6023 39.6588C13.8392 39.8596 13.3161 40.5828 12.9294 41.0126C12.5796 40.6132 12.2455 40.2003 11.9278 39.7749C12.5074 39.3961 12.9867 38.4447 14.0321 38.4047C14.1192 38.622 14.2118 38.8384 14.3082 39.0526C14.4212 39.3004 14.5906 39.3961 14.9059 39.3961C15.8769 39.3961 17.382 38.7671 18.538 37.6126C17.7851 36.2432 17.5576 35.5459 17.5576 34.8322C17.5576 33.0181 20.1318 31.4957 20.1318 29.7357C20.1318 27.9757 19.2447 26.9686 19.2447 25.062C19.2447 23.3443 20.0212 21.8604 21.0321 20.6094C20.7812 20.7663 20.5631 20.942 20.3498 21.1584C19.2494 22.2722 18.5192 23.902 18.5192 25.4047C18.5192 27.429 19.28 28.2604 19.28 29.7624C19.28 31.1451 16.349 33.0682 16.68 34.9561C15.6572 35.8879 14.4369 36.3035 13.3702 36.3035C13.4627 36.6957 13.571 37.0824 13.6925 37.4635C12.491 37.5263 11.9412 38.5522 11.3059 38.891C10.9921 38.4188 10.6996 37.9341 10.4274 37.4377C11.4972 37.3255 11.8196 35.9498 13.3145 36.0549C13.2361 35.6918 13.1702 35.3239 13.1184 34.9522C11.3976 34.8369 11.007 36.2879 9.87607 36.3498C9.63468 35.8355 9.41539 35.3111 9.21881 34.7781L12.9827 33.3428L12.9749 32.8777C12.9749 32.5961 12.9827 32.3177 12.9984 32.0416C11.0604 31.9961 10.4706 33.6596 8.79607 33.4949C8.64092 32.9641 8.50747 32.4272 8.39607 31.8855C10.5137 32.1475 11.2808 30.3686 13.1851 30.3694C13.2714 29.8596 13.3827 29.3616 13.5208 28.8714C11.2125 28.7718 10.407 30.7788 8.1545 30.4055C8.09554 29.9358 8.05368 29.4641 8.02901 28.9914C10.647 29.2847 11.629 27.1318 14.0133 27.3945C14.2384 26.8251 14.4996 26.273 14.7945 25.7428C11.8047 25.2173 10.7898 27.7177 8.00705 27.3333C8.30744 16.6039 17.1004 7.99844 27.9027 7.99844C38.7059 7.99844 47.498 16.6047 47.7984 27.3357C45.0157 27.72 44.0008 25.2212 41.0118 25.7459C41.3059 26.2761 41.5671 26.8283 41.7929 27.3977C44.1757 27.1333 45.1576 29.2871 47.7772 28.9945ZM19.3474 20.6463C17.8816 20.0471 16.1082 20.1851 14.5929 21.1584C14.3576 19.749 13.5929 18.4965 12.5035 17.7404C12.3529 17.6361 12.1961 17.7349 12.2102 17.9098C12.44 20.8886 10.6988 23.4753 8.55764 25.749C10.7647 26.4126 12.6439 23.5702 15.5067 24.5624C16.5348 23.0316 17.837 21.704 19.3474 20.6463ZM27.9027 18.8447C26.0557 18.8447 24.5074 19.8894 24.102 21.2392C24.0706 21.3428 24.1137 21.4102 24.2329 21.3569C24.5868 21.2044 24.9692 21.129 25.3545 21.1357C26.1074 21.1357 26.7718 21.4118 27.1647 21.8933C27.3388 22.4667 27.3529 23.2973 27.1569 23.7702C26.8463 23.7012 26.7349 23.4604 26.4314 23.4604C26.1286 23.4604 25.8933 23.6737 25.3796 23.6737C24.8659 23.6737 24.8055 23.4306 24.4674 23.4306C24.0706 23.4306 23.9969 23.84 23.9969 24.302C23.9969 26.3608 25.8894 29.1937 27.9027 29.1937C29.9145 29.1937 31.807 26.3608 31.807 24.302C31.807 23.84 31.7121 23.4447 31.2972 23.3914C31.0894 23.5404 30.8988 23.6737 30.4251 23.6737C29.9114 23.6737 29.7694 23.4604 29.4667 23.4604C29.1012 23.4604 29.1372 24.2314 28.7035 24.2745C28.4149 23.5796 28.4008 22.6879 28.6408 21.8933C29.0345 21.4118 29.698 21.1357 30.451 21.1357C30.862 21.1357 31.2431 21.2079 31.5725 21.3561C31.6918 21.4102 31.7341 21.342 31.7027 21.2392C31.298 19.8894 29.7506 18.8447 27.9027 18.8447ZM30.8447 21.7984C30.4016 21.7984 29.8823 21.9341 29.5553 22.2981C29.5191 22.4109 29.5241 22.5329 29.5694 22.6424C30.3733 22.3671 31.0816 22.3561 31.4235 22.7388C31.6063 22.5733 31.6651 22.4235 31.6651 22.251C31.6651 21.9835 31.3929 21.7984 30.8447 21.7984ZM24.382 22.7396C24.7694 22.3506 25.5867 22.3671 26.4345 22.6808C26.4721 22.2588 25.7161 21.7977 24.9616 21.7977C24.4125 21.7977 24.1412 21.9828 24.1412 22.251C24.1412 22.4235 24.2 22.5733 24.382 22.7388V22.7396ZM37.1161 15.7702C35.6572 15.8745 34.3898 16.3749 33.3655 17.2102C33.7819 16.0225 34.3491 14.8933 35.0533 13.8502C33.1961 14.0471 31.6431 14.7263 30.5098 15.8879L29.6227 13.5624L31.5914 11.8235L28.9553 11.6369L27.9027 9.18511L26.8502 11.6369L24.2133 11.8235L26.1827 13.5624L25.2965 15.8879C24.1623 14.7271 22.6094 14.0471 20.7529 13.8502C21.4563 14.8937 22.0232 16.0228 22.44 17.2102C21.4157 16.3749 20.149 15.8737 18.6902 15.7702C19.5647 16.8957 20.3404 18.0949 20.9153 19.3843C20.9804 19.5302 21.1192 19.5773 21.2698 19.502C23.331 18.4787 25.6015 17.9477 27.9027 17.9506C30.2847 17.9506 32.5357 18.5098 34.5357 19.5028C34.6863 19.5773 34.8259 19.5302 34.8894 19.3851C35.4651 18.0949 36.2408 16.8957 37.1169 15.7694L37.1161 15.7702ZM40.3012 24.5632C43.1623 23.5718 45.0423 26.4133 47.2502 25.7506C45.1082 23.4761 43.3671 20.8902 43.5976 17.9114C43.611 17.7365 43.4541 17.6369 43.3043 17.742C42.2141 18.4973 41.4494 19.7498 41.2149 21.16C39.6988 20.1867 37.9255 20.0479 36.4604 20.6479C37.9706 21.7055 39.2727 23.0328 40.3012 24.5632ZM42.8941 45.1592H41.8808V47.8824H41.5184V45.1592H40.5082V44.8204H42.8933V45.1592H42.8941ZM43.3184 44.8204H43.8565L44.898 47.2204H44.9059L45.9498 44.8204H46.4792V47.8824H46.1137V45.3153H46.1059L45.0094 47.8824H44.7882L43.6878 45.3153H43.68V47.8824H43.3192V44.8204H43.3184Z" fill="#006341"/>
</g>
<defs>
<clipPath id="clip0_108_129">
<rect width="40" height="40" fill="white" transform="translate(8 8)"/>
</clipPath>
</defs>
</svg>
