<svg xmlns="http://www.w3.org/2000/svg" xmlns:xlink="http://www.w3.org/1999/xlink" width="27.802942336299317" height="27.802942336299324" viewBox="0 0 27.802942336299317 27.802942336299324" fill="none"><defs><rect id="path_0" x="0" y="0" width="24" height="24" /></defs><g opacity="1" transform="translate(1.9014711681496692 1.9014711681496692)  rotate(100 12 12)"><mask id="bg-mask-0" fill="white"><use xlink:href="#path_0"></use></mask><g mask="url(#bg-mask-0)" ><g opacity="1" transform="translate(3 3.029213546250352)  rotate(0 8.985393226874823 8.985393226874823)"><path id="路径 2" fill-rule="evenodd" style="fill:#000000" transform="translate(0 3.8277864537496455)  rotate(0 7.071 7.071500000000001)" opacity="1" d="M9.9,0L0,9.9L0,14.14L4.24,14.14L14.14,4.24L9.9,0L9.9,0Z " /><path id="路径 3" fill-rule="evenodd" style="fill:#000000" transform="translate(11.314 0)  rotate(0 3.328393226874823 3.328393226874824)" opacity="1" d="M4.24,6.66L6.36,4.54C6.75,4.15 6.75,3.51 6.36,3.12L3.54,0.29C3.14,-0.1 2.51,-0.1 2.12,0.29L0,2.41L4.24,6.66Z " /></g></g></g></svg>